Coordinates
version=1
nRows=11
nColumns=36
inDegrees=yes

Units are S.I. units (second, meters, Newtons, ...)
If the header above contains a line with 'inDegrees', this indicates whether rotational values are in degrees (yes) or radians (no).

endheader
time	pelvis_tilt	pelvis_list	pelvis_rotation	pelvis_tx	pelvis_ty	pelvis_tz	hip_flexion_r	hip_adduction_r	hip_rotation_r	knee_angle_r	knee_angle_r_beta	ankle_angle_r	subtalar_angle_r	mtp_angle_r	hip_flexion_l	hip_adduction_l	hip_rotation_l	knee_angle_l	knee_angle_l_beta	ankle_angle_l	subtalar_angle_l	mtp_angle_l	lumbar_extension	lumbar_bending	lumbar_rotation	arm_flex_r	arm_add_r	arm_rot_r	elbow_flex_r	pro_sup_r	arm_flex_l	arm_add_l	arm_rot_l	elbow_flex_l	pro_sup_l
      0.00000000	      9.14780406	      0.38663797	     -4.15401655	      0.09459523	      0.95524525	     -0.03755843	     -7.17730128	     -4.60694860	     -5.05859666	      7.64692682	      0.13346405	      5.36959017	     -9.53552689	     -7.44133916	     -7.94340151	     -5.75858167	     -7.77564535	      7.67592028	      0.13397008	     -0.01454282	    -14.92417751	     -7.44133916	    -13.21707999	     -0.97352098	     -2.41172957	     36.06392675	      7.29304665	     40.80524469	    116.52365376	    102.00191457	     55.22752362	     10.25949806	     74.57437964	    125.79274325	     95.36162789
      0.01666670	     11.72864356	      0.60220844	     -4.28513342	      0.09531146	      0.95835851	     -0.03843075	    -10.55227531	     -4.47638757	     -5.11785488	      6.15065964	      0.10734926	      6.93460590	     -8.18025833	     -7.45277382	    -11.61968358	     -5.02900144	     -9.60471347	      5.69520560	      0.09940009	     -0.25536196	    -14.34473822	     -7.45277382	    -15.77273285	     -0.75324829	     -3.03334648	     38.99904981	      7.86393574	     41.43852657	    117.28182348	    102.34163731	     57.56247393	      8.72175347	     72.86403741	    129.99503617	     94.54036328
      0.03333330	     11.27106581	      1.20421038	     -4.18461542	      0.09723892	      0.95977982	     -0.03823923	    -10.48693009	     -4.85454018	     -5.90883039	      5.28801343	      0.09229325	      5.57575905	     -8.81656393	     -7.47089420	    -11.16771047	     -4.39990589	    -10.49222349	      5.55194096	      0.09689965	      0.34874992	    -12.35859325	     -7.47089420	    -14.81837287	     -1.62754681	     -2.79925609	     38.54720319	      8.38824764	     40.65953930	    119.93130169	    104.64044704	     58.12218090	      8.18571862	     73.14956984	    130.91186590	     94.65177567
      0.05000000	     12.06237485	      1.44229233	     -4.08853754	      0.09747633	      0.96120255	     -0.03798934	    -11.67416504	     -5.24111115	     -6.24251683	      4.64814313	      0.08112540	      5.45564030	     -8.17360001	     -7.47555352	    -12.48352047	     -4.06720711	    -11.01890604	      4.65343615	      0.08121778	      0.46370974	    -10.80795287	     -7.47555352	    -15.40535816	     -2.04094610	     -2.85399627	     38.18685784	      8.57408425	     40.80076332	    120.87136099	    104.10343106	     58.26812736	      7.95775861	     73.12161711	    130.29942020	     92.99147342
      0.06666670	     12.27374118	      1.55372117	     -3.99989429	      0.09757418	      0.96091362	     -0.03759276	    -12.17877000	     -5.33077011	     -6.17799182	      4.19244562	      0.07317198	      5.08833836	     -8.52147496	     -7.48188255	    -13.01520864	     -3.95740817	    -11.43000332	      4.08733412	      0.07133744	      0.65381619	     -9.43216945	     -7.48188255	    -15.47113009	     -2.18278710	     -2.63556280	     37.79341649	      8.45280956	     41.38930063	    121.56480305	    104.91423364	     58.15803270	      8.02769461	     73.89176612	    129.63030314	     91.58151060
      0.08333330	     12.41631396	      1.70441864	     -3.76204468	      0.09703987	      0.95809835	     -0.03753444	    -12.56691729	     -5.39068247	     -6.14854851	      3.83099001	      0.06686339	      4.86325128	     -8.93170942	     -7.48283723	    -13.25840202	     -3.84460532	    -11.39143905	      3.84865374	      0.06717168	      0.70905110	     -8.80923830	     -7.48283723	    -15.66521685	     -2.38505047	     -2.50717520	     38.22280974	      8.59143265	     41.17625129	    121.01069574	    104.60356512	     58.46500203	      8.43404063	     74.45505012	    129.42881174	     91.21474622
      0.10000000	     12.54113300	      1.85691925	     -3.53118360	      0.09769572	      0.95872653	     -0.03714516	    -12.92997822	     -5.46961771	     -6.19751780	      3.52746850	      0.06156594	      4.71357544	     -9.22417520	     -7.48545472	    -13.48434826	     -3.77404934	    -11.38444975	      3.62903897	      0.06333868	      0.62417655	     -8.27579354	     -7.48545472	    -15.89587751	     -2.62692488	     -2.36730688	     38.55199215	      8.69029327	     40.89029176	    120.86319909	    104.25214241	     58.79840525	      8.78872946	     75.07082530	    129.31903216	     89.97042868
      0.11666670	     12.60047230	      1.99646189	     -3.33314316	      0.09755078	      0.95905248	     -0.03704691	    -13.16561532	     -5.52551100	     -6.25783246	      3.29671324	      0.05753850	      4.53725220	     -9.52616459	     -7.48856701	    -13.59730644	     -3.68528434	    -11.33821573	      3.45222807	      0.06025275	      0.49999005	     -7.92313600	     -7.48856701	    -16.07946201	     -2.81630129	     -2.38708573	     38.94493260	      8.85425872	     40.83651700	    120.70809695	    104.65049141	     59.06374892	      8.96227848	     75.57661483	    129.44582638	     89.17672798
      0.13333330	     12.67457323	      2.10657380	     -3.14700649	      0.09739754	      0.95856669	     -0.03743239	    -13.36406748	     -5.58374744	     -6.30858058	      3.10793947	      0.05424378	      4.34804202	     -9.74433635	     -7.49024932	    -13.68671283	     -3.60786037	    -11.11671286	      3.32697471	      0.05806666	      0.16202679	     -8.10890713	     -7.49024932	    -16.28353706	     -2.93947731	     -2.66012247	     39.40776416	      9.14496079	     40.97160416	    120.03564980	    102.95195565	     59.18042153	      8.95201229	     75.77437298	    129.69356436	     87.60323706
      0.15000000	     12.69980974	      2.20188069	     -2.94183905	      0.09792358	      0.95874679	     -0.03743947	    -13.46151283	     -5.62943827	     -6.32797113	      3.02417292	      0.05278177	      4.25479072	     -9.93962838	     -7.49112368	    -13.69008458	     -3.56434834	    -10.92763957	      3.29563745	      0.05751972	     -0.08494298	     -8.02746285	     -7.49112368	    -16.48362129	     -2.99351936	     -2.93130034	     39.49007825	      9.35842691	     41.42872698	    121.35447463	    102.38792761	     59.19453930	      9.00004555	     76.27666282	    130.32757879	     86.82202585
      0.16666670	     12.75098584	      2.24063839	     -2.76840943	      0.09889592	      0.95646024	     -0.03739370	    -13.60940917	     -5.61203823	     -6.19662920	      2.94619467	      0.05142080	      4.18080825	    -10.29077056	     -7.49534670	    -13.76488295	     -3.59518609	    -10.98571125	      3.30010013	      0.05759761	     -0.10502912	     -7.63913333	     -7.49534670	    -16.61872611	     -3.09834616	     -2.78085765	     39.51668089	      9.35241781	     41.14514091	    122.07850781	    105.32947402	     59.30613036	      9.26742598	     76.22961713	    130.24979498	     87.50303890
